<svg width="454.3" height="92.2" viewBox="0 0 454.3 92.2" xmlns="http://www.w3.org/2000/svg"><g id="svgGroup" stroke-linecap="round" fill-rule="evenodd" font-size="9pt" stroke="#000" stroke-width="0.25mm" fill="#1414141" style="stroke:#000;stroke-width:0.25mm;fill:#1414141"><path d="M 14 71.3 L 0 71.3 L 0 1.3 L 14 1.3 L 14 30.2 L 35.8 1.3 L 54.1 1.3 L 27 34.1 L 56.1 71.3 L 38.2 71.3 L 14 40.4 L 14 71.3 Z M 223.2 11 L 213.3 19.6 A 20.73 20.73 0 0 0 198.203 13.007 A 26.357 26.357 0 0 0 197.6 13 A 23.619 23.619 0 0 0 191.429 13.776 A 19.266 19.266 0 0 0 185.95 16.2 Q 181 19.4 178.3 24.7 A 25.073 25.073 0 0 0 175.626 35.161 A 29.605 29.605 0 0 0 175.6 36.4 Q 175.6 42.8 178.3 48.05 Q 181 53.3 186 56.45 A 20.273 20.273 0 0 0 193.773 59.293 A 26.743 26.743 0 0 0 197.9 59.6 A 26.109 26.109 0 0 0 202.418 59.227 A 19.706 19.706 0 0 0 206.9 57.9 Q 210.8 56.2 213.9 52.8 L 224.1 61.5 A 27.976 27.976 0 0 1 218.065 66.856 A 36.445 36.445 0 0 1 213.45 69.45 A 31.421 31.421 0 0 1 205.665 71.908 Q 202.149 72.557 198.141 72.598 A 53.086 53.086 0 0 1 197.6 72.6 A 38.118 38.118 0 0 1 186.982 71.154 A 34.556 34.556 0 0 1 183.15 69.8 Q 176.5 67 171.55 62 Q 166.6 57 163.85 50.45 Q 161.1 43.9 161.1 36.4 A 37.581 37.581 0 0 1 163.547 22.817 A 36.16 36.16 0 0 1 163.75 22.3 Q 166.4 15.7 171.25 10.7 Q 176.1 5.7 182.8 2.85 A 35.992 35.992 0 0 1 193.88 0.157 A 43.432 43.432 0 0 1 197.6 0 A 45.854 45.854 0 0 1 204.42 0.481 Q 208.102 1.035 211.205 2.229 A 26.745 26.745 0 0 1 212.35 2.7 A 29.029 29.029 0 0 1 221.696 9.321 A 34.53 34.53 0 0 1 223.2 11 Z M 49.9 91.2 L 51.9 78.3 A 23.292 23.292 0 0 0 55.595 78.902 A 28.616 28.616 0 0 0 58 79 A 11.071 11.071 0 0 0 60.938 78.629 A 8.436 8.436 0 0 0 64.4 76.75 A 12.625 12.625 0 0 0 67.894 71.417 A 14.955 14.955 0 0 0 68 71.1 L 68.7 68.9 L 48.1 19.3 L 64.4 19.3 L 74.5 49 Q 75.9 53 76.7 57.3 Q 77.5 53 78.9 49 L 89 19.3 L 105 19.3 L 82 74.6 A 41.361 41.361 0 0 1 78.467 81.337 A 31.462 31.462 0 0 1 73.4 87.35 A 17.717 17.717 0 0 1 65.731 91.4 Q 63.024 92.1 59.824 92.188 A 33.798 33.798 0 0 1 58.9 92.2 A 47.718 47.718 0 0 1 56.845 92.153 Q 55.761 92.107 54.561 92.013 A 78.146 78.146 0 0 1 54.4 92 Q 51.9 91.8 49.9 91.2 Z M 414.9 71.3 L 398.8 71.3 L 418.3 45.3 L 399.8 19.3 L 415.9 19.3 L 426.5 35.8 L 437.5 19.3 L 453.3 19.3 L 434.8 45.5 L 454.3 71.3 L 437.9 71.3 L 426.6 54.7 L 414.9 71.3 Z M 402.5 50.2 L 363.6 50.2 A 14.64 14.64 0 0 0 365.699 55.064 A 13.507 13.507 0 0 0 368.05 57.7 A 11.76 11.76 0 0 0 374.187 60.438 A 15.976 15.976 0 0 0 376.5 60.6 A 16.293 16.293 0 0 0 380.493 60.131 A 12.99 12.99 0 0 0 384.15 58.6 A 15.619 15.619 0 0 0 387.646 55.71 A 13.894 13.894 0 0 0 389.2 53.6 L 399.7 61.5 A 20.416 20.416 0 0 1 394.614 66.922 A 27.558 27.558 0 0 1 390.4 69.5 Q 384.2 72.6 376.5 72.6 A 29.324 29.324 0 0 1 368.564 71.564 A 24.629 24.629 0 0 1 362.4 68.9 Q 356.3 65.2 352.95 59.05 A 27.783 27.783 0 0 1 349.62 46.564 A 32.896 32.896 0 0 1 349.6 45.4 Q 349.6 37.9 353.1 31.65 Q 356.6 25.4 362.65 21.7 A 25.311 25.311 0 0 1 373.988 18.1 A 31.188 31.188 0 0 1 376.5 18 A 27.913 27.913 0 0 1 384.265 19.045 A 23.72 23.72 0 0 1 390.25 21.7 Q 396.2 25.4 399.55 31.65 A 28.54 28.54 0 0 1 402.897 44.933 A 33.322 33.322 0 0 1 402.9 45.4 A 26.803 26.803 0 0 1 402.844 47.107 A 30.696 30.696 0 0 1 402.8 47.7 A 35.093 35.093 0 0 1 402.594 49.557 A 40.045 40.045 0 0 1 402.5 50.2 Z M 347.3 71.3 L 339.9 71.3 A 24.998 24.998 0 0 1 335.337 70.911 Q 330.887 70.083 328.1 67.5 A 11.381 11.381 0 0 1 325.226 63.092 Q 324 59.849 324 55.2 L 324 30.8 L 316.7 30.8 L 316.7 19.3 L 324 19.3 L 324 8.8 L 337.5 7.4 L 337.5 19.3 L 348.5 19.3 L 348.5 30.8 L 337.5 30.8 L 337.5 54.5 Q 337.5 59.3 341.7 59.3 L 347.3 59.3 L 347.3 71.3 Z M 129.9 72.6 Q 121.9 72.6 115.6 68.9 Q 109.3 65.2 105.75 59.05 A 26.714 26.714 0 0 1 102.203 45.868 A 31.426 31.426 0 0 1 102.2 45.4 Q 102.2 37.9 105.75 31.7 Q 109.3 25.5 115.6 21.8 A 27.028 27.028 0 0 1 127.442 18.191 A 32.976 32.976 0 0 1 129.9 18.1 A 30.254 30.254 0 0 1 137.984 19.145 A 25.64 25.64 0 0 1 144.25 21.8 Q 150.5 25.5 154.05 31.7 Q 157.6 37.9 157.6 45.4 A 27.313 27.313 0 0 1 155.519 56.093 A 26.278 26.278 0 0 1 154.05 59.05 Q 150.5 65.2 144.25 68.9 A 26.567 26.567 0 0 1 133.355 72.423 A 33.021 33.021 0 0 1 129.9 72.6 Z M 251.6 72.6 Q 243.6 72.6 237.3 68.9 Q 231 65.2 227.45 59.05 A 26.714 26.714 0 0 1 223.903 45.868 A 31.426 31.426 0 0 1 223.9 45.4 Q 223.9 37.9 227.45 31.7 Q 231 25.5 237.3 21.8 A 27.028 27.028 0 0 1 249.142 18.191 A 32.976 32.976 0 0 1 251.6 18.1 A 30.254 30.254 0 0 1 259.684 19.145 A 25.64 25.64 0 0 1 265.95 21.8 Q 272.2 25.5 275.75 31.7 Q 279.3 37.9 279.3 45.4 A 27.313 27.313 0 0 1 277.219 56.093 A 26.278 26.278 0 0 1 275.75 59.05 Q 272.2 65.2 265.95 68.9 A 26.567 26.567 0 0 1 255.055 72.423 A 33.021 33.021 0 0 1 251.6 72.6 Z M 298.8 71.3 L 285.3 71.3 L 285.3 19.3 L 298.4 19.3 L 298.4 29.2 A 16.812 16.812 0 0 1 299.973 24.956 A 12.963 12.963 0 0 1 303.7 20.65 Q 307.64 17.744 314.298 18.089 A 28.893 28.893 0 0 1 314.5 18.1 L 314.5 30.8 L 312.6 30.8 Q 306.8 30.8 302.8 34.5 A 12.167 12.167 0 0 0 299.099 41.355 A 17.846 17.846 0 0 0 298.8 44.7 L 298.8 71.3 Z M 129.9 60.3 Q 134.2 60.3 137.4 58.25 Q 140.6 56.2 142.35 52.8 Q 144.1 49.4 144.1 45.4 A 16.677 16.677 0 0 0 143.235 39.981 A 15.409 15.409 0 0 0 142.35 37.9 Q 140.6 34.5 137.4 32.45 Q 134.2 30.4 129.9 30.4 Q 125.6 30.4 122.4 32.45 Q 119.2 34.5 117.45 37.9 A 15.953 15.953 0 0 0 115.715 44.638 A 18.767 18.767 0 0 0 115.7 45.4 A 15.931 15.931 0 0 0 117.45 52.8 Q 119.2 56.2 122.4 58.25 A 12.935 12.935 0 0 0 127.819 60.172 A 16.469 16.469 0 0 0 129.9 60.3 Z M 251.6 60.3 Q 255.9 60.3 259.1 58.25 Q 262.3 56.2 264.05 52.8 Q 265.8 49.4 265.8 45.4 A 16.677 16.677 0 0 0 264.935 39.981 A 15.409 15.409 0 0 0 264.05 37.9 Q 262.3 34.5 259.1 32.45 Q 255.9 30.4 251.6 30.4 Q 247.3 30.4 244.1 32.45 Q 240.9 34.5 239.15 37.9 A 15.953 15.953 0 0 0 237.415 44.638 A 18.767 18.767 0 0 0 237.4 45.4 A 15.931 15.931 0 0 0 239.15 52.8 Q 240.9 56.2 244.1 58.25 A 12.935 12.935 0 0 0 249.519 60.172 A 16.469 16.469 0 0 0 251.6 60.3 Z M 363.6 40.1 L 389.3 40.1 Q 388.2 35.8 384.75 32.7 A 12.023 12.023 0 0 0 377.072 29.619 A 15.566 15.566 0 0 0 376.3 29.6 Q 371.5 29.6 368.1 32.5 A 13.621 13.621 0 0 0 363.826 39.235 A 16.985 16.985 0 0 0 363.6 40.1 Z" vector-effect="non-scaling-stroke"/></g></svg>